<svg xmlns="http://www.w3.org/2000/svg" viewBox="0 0 40.4 34.31"><defs><style>.cls-1{fill:#5bab46;}.cls-2{fill:none;stroke:#5bab46;stroke-miterlimit:10;stroke-width:0.25px;}</style></defs><g id="Layer_2" data-name="Layer 2"><g id="Layer_1-2" data-name="Layer 1"><path class="cls-1" d="M34.84,20.65c.33-.4.66-.8,1-1.19a.48.48,0,0,1,.32-.15h4.21v15h-30v-15h.49c2.07,0,4.13,0,6.2,0a.53.53,0,0,0,.61-.42C19.06,15,20.43,11,21.79,7.05c.08-.23.17-.47.28-.76l3.32,1.14c1,.35,2.05.7,3.08,1.07a.5.5,0,0,0,.65-.18c.22-.28.49-.53.74-.8l.06.06-.39.57L28.81,9a3.73,3.73,0,0,0-.63-.39c-.77-.28-1.55-.55-2.33-.8-.11,0-.24,0-.36.06.06.11.1.26.2.32a2.18,2.18,0,0,0,.51.17l1.82.5c0,.15.6.26.17.64.09-.25-.07-.31-.27-.38l-5-1.73a1.68,1.68,0,0,0-.45,0c.11,0,.24-.15.33-.12.45.12.88.29,1.33.42.19.06.4.07.59.11l.62.15a.88.88,0,0,1,.05-.15c-.05,0-.09-.14-.15-.16-.9-.31-1.8-.63-2.71-.9-.26-.08-.46.07-.56.39-.27.89-.6,1.76-.9,2.63l-.74,2.13c-.28.81-.54,1.62-.84,2.43-.1.28,0,.41.31.48.16-.57.3-1.14.5-1.69a5,5,0,0,1,.46-.8c-.09.32-.18.63-.29.94l-1.32,3.71c-.05-.21.08-.52-.4-.59.2.6-.66,1-.23,1.7.14-.26.23-.43.33-.6l.3-.52c-.05.18-.08.37-.14.55-.43,1.25-.86,2.49-1.29,3.75.74.16.8.13,1-.48L22.73,9c.08-.23.17-.46.27-.72,1.28.45,2.52.86,3.75,1.3.52.2,1,.4,1.44-.15,0,.09-.05.18-.07.27-.12.48-.23.49-.69.3a7.15,7.15,0,0,0-1.15-.28l-.06.16.35.23.49.31-3.6-1.2a2.92,2.92,0,0,0-.17.37q-1,2.84-2,5.67c-.57,1.64-1.15,3.27-1.72,4.91.1-.42.17-.83.3-1.23s0-.41-.33-.47c0,.29-.09.56-.13.87a2.43,2.43,0,0,0-.29.46c-.17.42-.29.87-.47,1.28a.82.82,0,0,1-1.06.21c-.05,0-.11-.17-.09-.18.43-.36,0-1,.47-1.37a.51.51,0,0,0-.13-.31c-.09-.06-.24,0-.37,0H11l-.44,0c0,.27,0,.52,0,.77,0,4.47,0,8.93,0,13.4,0,.49.14.59.61.59q14.27,0,28.54,0c.46,0,.61-.1.61-.59,0-4.53,0-9.06,0-13.59,0-.09,0-.21,0-.28s-.19-.31-.29-.31c-1.18,0-2.36,0-3.54,0a1,1,0,0,0-.58.29c-.34.29-.65.61-1,.92Zm-14.3-4s.12-.05.13-.09c.23-.65.45-1.3.68-1.94.28-.8.59-1.58.85-2.38.05-.14,0-.32-.07-.49H22c-.06.15-.13.29-.18.45-.36,1-.7,2-1.05,3.06-.29.84-.58,1.68-.88,2.53-.07.21-.15.43.31.48.12-.54.25-1.07.37-1.61Zm4.38-7.33,0-.21a7.35,7.35,0,0,1-1-.32c-.58-.28-.63-.4-1.08.32,0,.06,0,.19,0,.28a2.61,2.61,0,0,0,.27-.06c.19-.07.37-.21.55-.2a9.81,9.81,0,0,1,1.19.19"/><path class="cls-1" d="M28.06,10.56,26.5,12.31h0l.44-.64c.09-.13.17-.27.27-.43l-1.47.23c.17.24.55.43.06.64,0-.1,0-.28-.05-.3-.46-.18-.94-.33-1.42-.49l-1,2.81-.65-.24c.43-1.18.84-2.32,1.25-3.47.65.22,1.26.39,1.83.64s.92.22,1.25-.27c.29.36.4.35.64,0a1.87,1.87,0,0,1,.42-.3l0,.05m-3,.66a1.27,1.27,0,0,0,0-.2,3,3,0,0,0-.73-.28.55.55,0,0,0-.48.22,12.16,12.16,0,0,0-.45,1.45c0,.11.05.25.09.37a7.17,7.17,0,0,0,.61-1.34c.08-.23.19-.29.42-.22a2.35,2.35,0,0,0,.53,0m.27,0s.06,0,.08,0a.24.24,0,0,0,0-.07l-.07,0s0,0,0,.07"/><path class="cls-1" d="M35.21,7.87,32.58,5.58,28.83,9.71s0,0,0-.05c.45-.58.88-1.18,1.38-1.71.2-.22.4-.32.14-.61l-.38.24-.06-.06,2.66-3L34,5.87l0,0c-.37-.26-.74-.53-1.12-.76a.67.67,0,0,0-.48-.06c-.09,0-.12.23-.13.25.37.21.69.35,1,.54s.46.61.68.61.41.25.58.39a4.28,4.28,0,0,1,.5.61c.1.13.18.25.27.38Zm-3.05-2,0-.17c-.15,0-.35,0-.46,0a2.83,2.83,0,0,0-.53.56c-.18.23-.33.49-.49.73l.16.14,1.35-1.31"/><path class="cls-1" d="M38.31,10.64,35.46,8.1l0,0,.36.19c-.1-.33-.18-.59-.27-.85l.06,0,3,2.63-.07.06-.65-.39-.13.11a3.5,3.5,0,0,0,.24.42c.11.15.24.28.36.42s0,0,0,0"/><path class="cls-1" d="M26.32,12.51c-.93,1.05-1.85,2.1-2.78,3.14-.41.46-.83.91-1.24,1.36L22.24,17a6.64,6.64,0,0,1,.59-.78c.32-.31.32-.51-.08-.7L24.1,14c0,.18-.07.37-.12.58a1.37,1.37,0,0,0,1-1.21,1.85,1.85,0,0,0,.43-.18c.3-.22.59-.46.88-.69ZM23.46,15l.15.17L24,14.8l-.14-.14-.35.34"/><path class="cls-1" d="M32,7.33l.71-.86,3.25,3,0,.05c-.13-.09-.27-.16-.39-.26L33.68,7.77c0,.26-.07.37-.1.49l-.48-.44.4-.29-.37-.29a1,1,0,0,1-.24-.15c-.21-.23-.39-.19-.58,0a4,4,0,0,1-.31.27L32,7.33"/><path class="cls-1" d="M28.55,11.14,31,8.38l.05,0a12.09,12.09,0,0,1-.76,1.11c-.32.37-.7.7-1.06,1.05a1.27,1.27,0,0,0,.13.19,3.3,3.3,0,0,0,.32-.18c.25-.17.48-.35.73-.53l-1.52,1.69.13-.52-.43-.06,0,0"/><path class="cls-1" d="M38.67,11.9l1.73,1.48-.71.75,0,0c0-.08.06-.19.13-.24.35-.24.21-.5,0-.74-.06-.07-.21-.08-.31-.12s-.1.2-.09.28c.05.29,0,.51-.33.52l.19-.3-1-1,.32-.52.05,0"/><path class="cls-1" d="M26.26,13.68l2.29-2.54,0,0a3,3,0,0,1-.23.35c-.26.24-.22.73-.69.81-.07,0-.08.31-.12.47l.41-.14.17-.05c-.4.44-.8.89-1.21,1.33.16-.28.31-.55.51-.94a3.27,3.27,0,0,0-.5.21,7.6,7.6,0,0,0-.61.52l-.06-.06"/><path class="cls-1" d="M39.24,10.57l1,.82-.48.59-1.43-1.34,0,0,.93.61.09-.11-.18-.49.05,0"/><path class="cls-1" d="M23,17.28c.42-.47.84-.93,1.25-1.4l0,0c0,.17,0,.35-.08.55l.57-.15-1.2,1.35a3.7,3.7,0,0,0,.13-.4,1.83,1.83,0,0,0,0-.33.77.77,0,0,0-.28.06,3.06,3.06,0,0,0-.39.34L23,17.28"/><path class="cls-1" d="M38.34,15.63l-2.5,2.8-.06-.06a2.34,2.34,0,0,1,.25-.5c.56-.62,1.14-1.23,1.72-1.83a4.15,4.15,0,0,1,.58-.43Z"/><path class="cls-1" d="M35.91,9.43l2.76,2.47-.05,0L38,11.65a2.37,2.37,0,0,0-.31-.43c-.2-.17-.56-.26-.62-.46-.16-.47-.58-.61-.89-.89a2.24,2.24,0,0,1-.27-.39l0-.05"/><path class="cls-1" d="M34.49,19.93l-1,1.23c.44.11.82.17,1.1-.25a1.66,1.66,0,0,1,.27-.26l0,0c0,.22-.09.45-.14.7H33.28a3.16,3.16,0,0,1,.22-.54,6.33,6.33,0,0,1,.49-.56l.47-.38,0,0"/><path class="cls-1" d="M24.39,15.79c.62-.71,1.25-1.41,1.87-2.11l.06.06c-.41.48-.81,1-1.22,1.46-.21.23-.45.42-.67.62l0,0"/><path class="cls-1" d="M35.84,18.43l-1.35,1.5,0,0,1.32-1.52.06.06"/><path class="cls-1" d="M22.3,17l-.23.33c.2.2.31.6.71.25l0,0c-.12.09-.32.28-.36.25a2.35,2.35,0,0,1-.54-.55s.22-.24.33-.37l.06.06"/><path class="cls-1" d="M31,8.38,32,7.33l.05.06c-.32.35-.63.7-.95,1l-.05,0"/><path class="cls-1" d="M34.49,6.32l.95.85,0,0-.95-.86,0,0"/><path class="cls-1" d="M28.83,9.71c-.25.29-.51.57-.76.85L28,10.51c.25-.28.5-.57.76-.85,0,0,0,0,0,.05"/><path class="cls-1" d="M39.06,14.83c-.17.18-.33.36-.49.55l0,0,.47-.57.06.06"/><path class="cls-1" d="M39.69,14.13l-.45.49-.05,0c.11-.2.12-.51.47-.48Z"/><path class="cls-1" d="M34,5.87l.5.45,0,0L34,5.89Z"/><path class="cls-1" d="M38.6,10l.34.32,0,0c-.2,0-.4,0-.38-.29L38.6,10"/><path class="cls-1" d="M22.78,17.59a3.88,3.88,0,0,1,.26-.31l.06.06-.29.28,0,0"/><path class="cls-1" d="M38.94,10.3l.3.27-.05,0-.28-.28,0,0"/><path class="cls-1" d="M35.46,8.1l-.25-.23,0,0,.27.2,0,0"/><path class="cls-1" d="M38.57,15.38l-.23.25v0l.2-.27,0,0"/><path class="cls-1" d="M35.44,7.16l.21.19-.06,0L35.4,7.2s0,0,0,0"/><path class="cls-1" d="M39.24,14.62l-.18.21L39,14.77a1.7,1.7,0,0,0,.19-.19l.05,0"/><path class="cls-1" d="M26.5,12.31l-.18.2,0,0,.18-.19Z"/><path class="cls-1" d="M24.29,15.88l.1-.09,0,0-.09.1Z"/><path class="cls-1" d="M22.41,18.19l0,0,0,0s0,0,0,0l0,0"/><path class="cls-1" d="M21.79,9.15v0c-.48.1-.3.53-.4.81-.2.64-.37,1.3-.56,1.95h0c0,.1-.07.19-.1.29h0a4.51,4.51,0,0,0-.46.79c-.2.55-.34,1.13-.5,1.69-.34-.07-.41-.2-.3-.48.29-.81.56-1.62.83-2.43l.74-2.13c.3-.87.63-1.74.9-2.63.1-.32.3-.47.56-.39.91.27,1.81.59,2.71.9.06,0,.1.11.15.16a.88.88,0,0,0-.05.15l-.62-.15c-.19,0-.4,0-.59-.11-.45-.13-.88-.3-1.33-.42-.09,0-.22.08-.33.12h0a3.28,3.28,0,0,0-.66,1.85"/><path class="cls-1" d="M28.78,9.66c-.26.28-.51.57-.76.85a1.87,1.87,0,0,0-.42.3c-.24.32-.35.33-.64,0h0l.26-.24-.17-.11h0l-.49-.31-.35-.23.06-.16a7.15,7.15,0,0,1,1.15.28c.46.19.57.18.69-.3,0-.09.05-.18.07-.27h0C28.62,9.08,28,9,28,8.82l-1.82-.5a2.18,2.18,0,0,1-.51-.17c-.1-.05-.14-.21-.2-.31.12,0,.25-.1.36-.07.78.25,1.56.52,2.33.8a3.73,3.73,0,0,1,.63.39l.72-.81.07.09-.07-.09.39-.57.38-.24c.26.29.06.39-.14.61-.51.53-.93,1.14-1.38,1.71"/><path class="cls-1" d="M20.54,16.67c-.12.54-.24,1.07-.37,1.61-.46-.05-.38-.27-.31-.48.3-.85.59-1.69.88-2.53.35-1,.69-2,1.05-3.06.05-.16.12-.3.18-.45h.16c0,.17.12.35.07.49-.26.8-.57,1.58-.85,2.38-.23.64-.45,1.29-.68,1.94,0,0-.09.06-.13.09l0,0Z"/><path class="cls-1" d="M24.92,9.34a9.81,9.81,0,0,0-1.19-.19c-.18,0-.36.13-.55.2a2.61,2.61,0,0,1-.27.06c0-.09-.06-.22,0-.28.45-.72.5-.6,1.08-.32a7.35,7.35,0,0,0,1,.32l0,.21"/><path class="cls-1" d="M19.13,16.87l-.3.52c-.1.17-.19.34-.33.6-.43-.73.43-1.1.23-1.7.48.07.35.38.4.59Z"/><path class="cls-1" d="M25.75,12.13a0,0,0,0,1,0,0c.49-.21.11-.4-.06-.64l1.47-.23c-.1.16-.18.3-.27.43l-.44.64-.18.19c-.29.23-.58.47-.88.69a1.85,1.85,0,0,1-.43.18h0c0-.1,0-.21,0-.31h0l.13-.17h0l.27-.3h0l.1-.1h0l.13-.15v0Z"/><path class="cls-1" d="M25,11.22a2.35,2.35,0,0,1-.53,0c-.23-.07-.34,0-.42.22a7.17,7.17,0,0,1-.61,1.34c0-.12-.12-.26-.09-.37A12.16,12.16,0,0,1,23.84,11a.55.55,0,0,1,.48-.22,3,3,0,0,1,.73.28,1.27,1.27,0,0,1,0,.2"/><path class="cls-1" d="M25.31,11.2s0-.06,0-.07l.07,0a.24.24,0,0,1,0,.07s-.05,0-.08,0"/><path class="cls-1" d="M35.4,7.2l.19.19c.09.26.17.52.27.85l-.36-.19-.27-.2c-.09-.13-.17-.25-.27-.38a4.28,4.28,0,0,0-.5-.61c-.17-.14-.23-.4-.58-.39s-.43-.43-.68-.61-.59-.33-1-.54c0,0,0-.22.13-.25a.67.67,0,0,1,.48.06c.38.23.75.5,1.12.76l.49.46.94.85"/><path class="cls-1" d="M32.16,5.83,30.81,7.14,30.65,7c.16-.24.31-.5.49-.73a2.83,2.83,0,0,1,.53-.56c.11-.08.31,0,.46,0l0,.17"/><path class="cls-1" d="M38.91,10.33l.28.28.18.49-.09.11-.93-.61c-.12-.14-.25-.27-.36-.42a3.5,3.5,0,0,1-.24-.42l.13-.11.65.39c0,.29.18.29.38.29"/><path class="cls-1" d="M25,13.36a1.36,1.36,0,0,1-1,1.21c.05-.21.08-.4.12-.58h0l.39-.46h0l.1-.11h0l.4-.09Z"/><path class="cls-1" d="M23.46,15l.35-.34.14.14-.34.37L23.46,15"/><path class="cls-1" d="M31.05,8.43c.32-.34.63-.69.95-1a4,4,0,0,0,.31-.27c.19-.22.37-.26.58,0a1,1,0,0,0,.24.15l.37.29-.4.29h0l-.16-.13h0c-.1-.08-.22-.24-.29-.22s-.47.12-.3.44h0l-.13.16h0c-.37,0-.7.35-.76.85h0c-.44,0-.41.36-.55.6h0l-.27.28h0L30.5,10h0l-.1.1h0c-.25.18-.48.36-.73.53a3.3,3.3,0,0,1-.32.18,1.27,1.27,0,0,1-.13-.19c.36-.35.74-.68,1.06-1.05a12.09,12.09,0,0,0,.76-1.11"/><path class="cls-1" d="M35.88,9.48a1.8,1.8,0,0,0,.27.39c.31.28.73.42.88.89.07.2.43.29.63.46a1.94,1.94,0,0,1,.3.43h0l-.51.06h0c-.16-.38-.35-.74-.84-.75v0c.07-.31-.13-.32-.35-.3h0l-.11-.1h0l-.3-.28h0a1.33,1.33,0,0,0-1-.93h0L34.44,9h0c0-.28-.16-.48-.49-.44h0c.08-.32-.12-.33-.34-.31h0c0-.12.05-.23.1-.49l1.81,1.45c.12.1.26.17.39.26"/><path class="cls-1" d="M28.13,12.62l-.17.05-.42.14c0-.16.06-.46.13-.47.47-.08.43-.57.68-.81a2.16,2.16,0,0,0,.24-.35l.43.06c-.06.22-.09.37-.13.52h0c-.38,0-.5.27-.54.6h0l-.22.26Z"/><path class="cls-1" d="M38,11.65l.65.29-.32.52h0l-.16-.14h0L38,11.65Z"/><path class="cls-1" d="M26.33,14.62a.07.07,0,0,1,0,.06L26,15h0l-.12.17h0l-.18.2h0l-.1.11h0c-.12.14-.25.27-.37.4h0c-.3-.06-.32.13-.3.36h0a.94.94,0,0,1-.1.1h0l-.57.15c0-.2.05-.38.08-.55l.1-.1c.22-.2.46-.39.67-.62.41-.48.81-1,1.22-1.46a7.6,7.6,0,0,1,.61-.52,3.27,3.27,0,0,1,.5-.21c-.2.38-.35.66-.51.94h0l-.13.16h0l-.13.14,0,0-.21.24h0l-.1.12"/><path class="cls-1" d="M23.58,20.73a1.44,1.44,0,0,0,1.6.43l-2.06-1.88L26,16.05l.54.45-2.43,2.73,1.67,1.52-.33.46h2.36l-.21-.35.47.24v.15a1.77,1.77,0,0,1-.48.15c-1.08,0-2.17,0-3.25,0-.55,0-.78-.23-.77-.67"/><path class="cls-1" d="M22.17,20.44a.88.88,0,0,1-.05-.15l.43.25c0,.05,0,.1,0,.16H22c-.08,0-.19,0-.22.09s0,.18.07.22c.24.2.22.37-.09.38-.78,0-1.56,0-2.35,0-.1,0-.19-.08-.31-.13l.29-1,.27-.1c-.09.33-.19.66-.29,1h2.36l0-.06-1.3-.48c.07-.22.13-.4.21-.63l1.5.45.11,0a.35.35,0,0,1,0-.08"/><path class="cls-1" d="M28.38,20.7a2,2,0,0,1,.19.12c.15.14.29.39.43.39a17,17,0,0,0,1.75-.11c-.16.11-.32.28-.49.29a13.26,13.26,0,0,1-1.41,0c-.47,0-.59-.21-.47-.7"/><path class="cls-1" d="M27.62,20.87l-.86-.76,0,0a2.83,2.83,0,0,1,.44.11,1.23,1.23,0,0,1,.28.23l0-.42,0,0,.78.71a2.1,2.1,0,0,0-.5,0c-.09,0-.15.14-.23.21"/><path class="cls-1" d="M30.93,20.91l.19-.24a4.9,4.9,0,0,0,.82.55c.4.17.61-.22.88-.41-.15.19-.26.5-.45.55a1.69,1.69,0,0,1-.88-.11,2.54,2.54,0,0,1-.56-.34"/><path class="cls-1" d="M21.54,19c.15-.19.29-.39.45-.6L21.74,18l.42-.15a.86.86,0,0,0,.07.1c-.27.3,0,.92-.69,1"/><path class="cls-1" d="M37.38,15.71l.85-1c-.08.51-.48.72-.85,1"/><path class="cls-1" d="M21.56,19.81l-.6-.48.47-.23c0,.24.09.48.13.71"/><path class="cls-1" d="M21.34,17.07c.27-.29.53-.59.8-.89-.15.4-.32.79-.8.89"/><path class="cls-1" d="M22.13,16.19l.53-.6c.1.44-.15.57-.53.6"/><path class="cls-1" d="M35.76,17.5l.5-.55c0,.36,0,.68-.5.55"/><path class="cls-1" d="M22.54,18.86c-.08.25-.55.39-.21.75-.09-.1-.29-.25-.27-.31s.08-.56.48-.44"/><path class="cls-1" d="M36.4,16.8l.66-.73c-.11.34-.24.67-.66.73"/><path class="cls-1" d="M21.43,17.76,21,17.43l.34-.33c0,.22.07.44.11.66"/><path class="cls-1" d="M33.3,20.26l.55-.6c.09.45-.31.45-.55.6"/><path class="cls-1" d="M34.88,18.48c.17-.17.33-.35.49-.52-.14.19-.07.59-.49.52"/><path class="cls-1" d="M22.12,20.3l-.56-.49c.29.05.56.12.56.49"/><path class="cls-1" d="M22.82,20l.51.47L22.82,20"/><path class="cls-1" d="M23.61,17.67c-.11.11-.21.23-.31.34v-.42l.31.08"/><path class="cls-1" d="M34.15,19.3l.32-.34-.32.34"/><path class="cls-1" d="M22.94,18.4l-.26.3.26-.3"/><path class="cls-1" d="M22.33,19.61l.24.22-.24-.22"/><path class="cls-1" d="M21.74,18l-.3-.26.3.26"/><path class="cls-1" d="M23.3,18l-.18.2.18-.2"/><path class="cls-1" d="M30.75,21.11l.18-.2-.18.2"/><path class="cls-1" d="M34.7,18.69l.15-.17-.15.17"/><path class="cls-1" d="M34.47,19l.22-.24-.22.24"/><path class="cls-1" d="M38.58,14.36l.23-.27-.23.27"/><path class="cls-1" d="M38.4,14.56l.19-.2-.19.2"/><path class="cls-1" d="M23.12,18.2l-.19.21Z"/><path class="cls-1" d="M37.19,15.9l.19-.19Z"/><path class="cls-1" d="M36.25,17a.93.93,0,0,0,.14-.14.93.93,0,0,1-.14.14"/><path class="cls-1" d="M35.46,17.86a1,1,0,0,1,.13-.16,1,1,0,0,0-.13.16"/><path class="cls-1" d="M22.67,18.71l-.13.15.13-.15"/><path class="cls-1" d="M23.33,20.51l.16.13-.16-.13"/><path class="cls-1" d="M33.94,19.55l.13-.15-.13.15"/><path class="cls-1" d="M37.07,16.06l.13-.16-.13.16"/><path class="cls-1" d="M22.58,19.84l.17.13-.17-.13"/><path class="cls-1" d="M22.41,18.19l0,0s0,0,0,0l0,0,0,0"/><path class="cls-1" d="M33.18,20.4l.13-.15Z"/><path class="cls-1" d="M38.88,14,39,13.9Z"/><path class="cls-1" d="M38.31,14.66l.1-.1-.1.1"/><path class="cls-1" d="M38.22,14.76a.52.52,0,0,0,.1-.11l-.1.11"/><path class="cls-1" d="M39,13.91l.1-.1Z"/><path class="cls-1" d="M21.45,19.09l.08-.09-.08.09"/><path class="cls-1" d="M23.48,20.64l.11.09-.11-.09"/><path class="cls-1" d="M34.06,19.41l.1-.11-.1.11"/><path class="cls-1" d="M32.91,20.71l.09-.1-.09.1"/><path class="cls-1" d="M35.37,18l.08-.1-.08.1"/><path class="cls-1" d="M32.82,20.81l.09-.1-.09.1"/><path class="cls-1" d="M35.58,17.71l.1-.11-.1.11"/><path class="cls-1" d="M35.67,17.61l.1-.11-.1.11"/><path class="cls-1" d="M33.85,19.66l.07-.09-.07.09"/><path class="cls-1" d="M22.68,15.58l.07-.09-.07.09"/><path class="cls-1" d="M33,20.61l.09-.1-.09.1"/><path class="cls-1" d="M34,20.27l0,0,0,0"/><path class="cls-1" d="M33.09,20.51l.08-.09-.08.09"/><path class="cls-1" d="M25,13.35l-.4.09L25,13l0,.31"/><path class="cls-1" d="M24.5,13.53l-.39.46.39-.46"/><path class="cls-1" d="M27.05,10.43l.18.11-.27.24.09-.35"/><path class="cls-1" d="M25.35,12.58l-.27.3Z"/><path class="cls-1" d="M25.75,12.13l-.17.19Z"/><path class="cls-1" d="M25.08,12.88l-.13.17.13-.17"/><path class="cls-1" d="M25.57,12.34l-.13.15.13-.15"/><path class="cls-1" d="M24.6,13.43l-.1.11.1-.11"/><path class="cls-1" d="M25.45,12.48l-.1.11.1-.11"/><path class="cls-1" d="M20.83,12c.19-.65.36-1.31.56-1.95.1-.28-.08-.71.4-.81l-1,2.76"/><path class="cls-1" d="M21.79,9.15a3.28,3.28,0,0,1,.66-1.85l-.66,1.85"/><path class="cls-1" d="M20.74,12.23c0-.1.07-.19.1-.29,0,.1-.07.19-.1.29"/><path class="cls-1" d="M29.53,8.15l.07.09Z"/><path class="cls-1" d="M20.54,16.67l0,0,0,0Z"/><path class="cls-1" d="M34.12,17.12a2.72,2.72,0,0,1-3.53,2.66,4.31,4.31,0,0,1-3.3-3.56,2.67,2.67,0,0,1,2.33-3.06,4.17,4.17,0,0,1,4.5,4M29,15.31l-.06.18a1.24,1.24,0,0,0,1.74,1.67,3.17,3.17,0,0,1,.69-.29c.19,0,.5,0,.57.13a.66.66,0,0,1-.1.58,5.21,5.21,0,0,1-.77.67l.41.55.77-.54.49.33.31-.41c-.4-.24-.4-.52-.27-.92a1.11,1.11,0,0,0-1.31-1.4,6,6,0,0,0-.91.37c-.31.13-.65.31-.89-.07s0-.6.26-.81.52-.39.8-.6l-.42-.57-1,.61-.45-.34c-.63.37-.09.59.1.86"/><path class="cls-1" d="M35.71,12.1l.46-.52,2.22,2-2.9,3.24c-.19-.16-.34-.29-.52-.46l2.42-2.72L35.71,12.1"/><path class="cls-1" d="M35,10.51l-.47.52L32.8,9.52l-2.44,2.72-.51-.47,2.89-3.25,2.24,2"/><path class="cls-1" d="M35.61,13.48l-.48.51L32.34,11.5l.47-.52,2.8,2.5"/><path class="cls-1" d="M26.1,19.54l-.54-.45.46-.53.36.33a.13.13,0,0,0-.07.06l-.47-.06.29.62Z"/><path class="cls-1" d="M34.8,9.34a1.31,1.31,0,0,1,1,.93l-1-.93"/><path class="cls-1" d="M31.44,8.91c.06-.5.39-.86.76-.85-.25.29-.51.57-.76.85"/><path class="cls-1" d="M38,11.65l.18.68-.69-.62.51-.06"/><path class="cls-1" d="M36.6,11c.49,0,.68.37.85.75L36.6,11"/><path class="cls-1" d="M32.35,7.9c-.17-.32.11-.38.3-.43s.19.13.29.21c-.32-.25-.4.13-.59.22"/><path class="cls-1" d="M28.35,12.36c0-.33.16-.58.54-.6l-.54.6"/><path class="cls-1" d="M30.89,9.51c.14-.24.11-.64.55-.6l-.55.6"/><path class="cls-1" d="M34,8.58c.33,0,.45.16.49.44L34,8.58"/><path class="cls-1" d="M33.59,8.26c.22,0,.42,0,.35.31l-.35-.31"/><path class="cls-1" d="M26.38,18.89l.34.31,0,0L26.31,19a.13.13,0,0,1,.07-.06"/><path class="cls-1" d="M36.24,10.63c.22,0,.42,0,.35.3Z"/><path class="cls-1" d="M24.91,16.22c0-.23,0-.42.3-.36Z"/><path class="cls-1" d="M26,15l.31-.32Z"/><path class="cls-1" d="M25.21,15.85c.12-.13.25-.26.37-.4-.12.14-.25.27-.37.4"/><path class="cls-1" d="M30.63,9.8l.27-.28-.27.28"/><path class="cls-1" d="M26.76,20.11l-.31-.26.06-.05.28.27,0,0"/><path class="cls-1" d="M34.44,9l.36.31Z"/><path class="cls-1" d="M27.22,19.65l.25.22,0,0-.27-.2,0-.05"/><path class="cls-1" d="M35.85,10.26l.3.28-.3-.28"/><path class="cls-1" d="M26.72,19.2l.3.27s0,0,0,0l-.29-.27Z"/><path class="cls-1" d="M26.43,14.51l.21-.24-.21.24"/><path class="cls-1" d="M28.13,12.62l.22-.26-.22.26"/><path class="cls-1" d="M25.67,15.36l.18-.2Z"/><path class="cls-1" d="M30.5,10l.13-.15L30.5,10"/><path class="cls-1" d="M26.79,14.11l.13-.16-.13.16"/><path class="cls-1" d="M25.85,15.16,26,15l-.12.17"/><path class="cls-1" d="M38.14,12.32l.16.14Z"/><path class="cls-1" d="M32.94,7.68l.16.13-.16-.13"/><path class="cls-1" d="M32.2,8.07l.13-.15-.13.15"/><path class="cls-1" d="M26.36,19.77l-.16-.14,0,0,.18.1-.05.07"/><path class="cls-1" d="M26.66,14.25l.13-.14-.13.14"/><path class="cls-1" d="M26.33,14.62l.1-.12-.1.12"/><path class="cls-1" d="M25.57,15.46l.1-.1-.1.1"/><path class="cls-1" d="M36.14,10.53l.11.1-.11-.1"/><path class="cls-1" d="M26.2,19.63l-.1-.1,0,0,.1.09Z"/><path class="cls-1" d="M27,19.47l.09.09,0,.05-.09-.1s0,0,0,0"/><path class="cls-1" d="M26.45,19.85l-.09-.08.05-.07.1.09-.06.06"/><path class="cls-1" d="M30.4,10.06l.1-.1-.1.1"/><path class="cls-1" d="M27.47,19.87l.1.09,0,0-.1-.09Z"/><path class="cls-1" d="M24.81,16.31a.94.94,0,0,0,.1-.1.94.94,0,0,1-.1.1"/><path class="cls-1" d="M27.11,19.56l.11.09-.06.05-.09-.09,0-.05"/><path class="cls-1" d="M16.39,7.35l.17.12.36.44c-.49.54-1,1.08-1.48,1.63-.18.21-.33.45-.49.67l-.07.07-.18.07-.15-.13a8.84,8.84,0,0,0-.68-.69c-.5-.41-1-.8-1.55-1.2-.23-.17-.25-.33,0-.53s.49-.54.73-.8c1-1.1,1-1.09,2.22-.25a12.72,12.72,0,0,0,1.16.6"/><path class="cls-1" d="M9,13.92l.14.15a5.64,5.64,0,0,0,.46.63c.58.58.59.6.05,1.19l-.47.52L8,17.72c-.46-.58-.85-1.1-1.26-1.6-.28-.34-.58-.66-.88-1L5.74,15,7.5,13.05c.21-.24.32-.23.54,0a7.79,7.79,0,0,0,1,.84"/><path class="cls-1" d="M5.81,17.16,7.1,18.82l-2.28,2.5c-.32-.66-.63-1.29-.93-1.92l-.31-.66h0c-.65-1,.09-1.51.65-2.1l.22-.24c.33-.35.41-.33.71.06a8.43,8.43,0,0,0,.65.69"/><path class="cls-1" d="M10,8.24,7.72,10.76C7.14,10.17,6.58,9.6,6.05,9a.37.37,0,0,1,0-.38C6.6,8,7.17,7.38,7.74,6.78a.42.42,0,0,1,.39,0c.62.48,1.22,1,1.88,1.5"/><path class="cls-1" d="M4.87,13.91c-.55-.7-1.05-1.34-1.54-2a.35.35,0,0,1,0-.33L5,9.72c.6.63,1.16,1.22,1.71,1.82a.34.34,0,0,1,0,.32c-.59.67-1.19,1.33-1.85,2.05"/><path class="cls-1" d="M11.66,2.48l.12-.13c.22-.17.44-.35.67-.5s.32-.25.42-.21c.72.25,1.42.55,2.19.86-.44.48-.82.92-1.23,1.33a.41.41,0,0,1-.39,0A16.12,16.12,0,0,1,12,3a1.92,1.92,0,0,1-.37-.47"/><path class="cls-1" d="M8.74,5.68l1.83-2c.74.47,1.5.93,2.32,1.44-.65.72-1.27,1.41-1.9,2.08a.42.42,0,0,1-.36,0C10,6.69,9.4,6.2,8.74,5.68m3.9-.53c-.63-.39-1.19-.76-1.77-1.1a.5.5,0,0,0-.46.06C10,4.53,9.6,5,9.19,5.42c-.17.18-.17.33,0,.47.49.37,1,.73,1.48,1.08A.27.27,0,0,0,11,7l1.66-1.81"/><path class="cls-1" d="M11.15,14.37,8.61,11.7,11,9l2.89,2.27-2.78,3.07m2.64-3c-.83-.64-1.63-1.21-2.38-1.84-.36-.31-.55-.18-.79.11-.46.54-.95,1.05-1.43,1.58s-.41.52.05,1,1.1,1.16,1.64,1.75c.21.22.36.24.57,0s.65-.73,1-1.09l1.36-1.49"/><path class="cls-1" d="M14.8,4.86c.56-.62,1.07-1.19,1.61-1.75A.39.39,0,0,1,16.77,3c1.15.43,2.29.88,3.5,1.35-.75.83-1.45,1.61-2.17,2.37a.35.35,0,0,1-.33,0c-1-.61-1.94-1.23-3-1.9m5.28-.42c-1-.4-1.95-.72-2.85-1.12A.84.84,0,0,0,16,3.66a8.27,8.27,0,0,1-.69.77c-.33.37-.31.43.12.7.74.46,1.46,1,2.21,1.41a.52.52,0,0,0,.47,0c.63-.65,1.24-1.33,1.93-2.09"/><path class="cls-1" d="M11.66,2.48A1.92,1.92,0,0,0,12,3a16.12,16.12,0,0,0,1.41.91.41.41,0,0,0,.39,0c.41-.41.79-.85,1.23-1.33-.77-.31-1.47-.61-2.19-.86-.1,0-.29.12-.42.21s-.45.33-.67.5c.77-1,.77-1,1.93-.55l1.6.65c-.52.57-1,1.1-1.49,1.62a.39.39,0,0,1-.36,0c-.68-.41-1.33-.84-2.06-1.29l.26-.28"/><path class="cls-1" d="M16.39,7.35a12.72,12.72,0,0,1-1.16-.6C14,5.91,14,5.9,13,7c-.24.26-.47.54-.73.8s-.19.36,0,.53c.52.4,1,.79,1.55,1.2a8.84,8.84,0,0,1,.68.69L11.82,8.13c.39-.43.75-.84,1.13-1.23s.66-.93,1.06-1,.83.43,1.24.69.76.5,1.14.75"/><path class="cls-1" d="M5.86,15.14c.29.32.6.64.88,1,.41.5.8,1,1.26,1.6l1.19-1.31.47-.52c.54-.59.53-.61-.05-1.19a5.64,5.64,0,0,1-.46-.63l1.18,1.18L7.93,17.9,5.86,15.14"/><path class="cls-1" d="M5.81,17.16a8.43,8.43,0,0,1-.65-.69c-.3-.39-.38-.41-.71-.06l-.22.24c-.56.59-1.3,1.13-.65,2.1-.14-.26-.3-.51-.43-.78a.35.35,0,0,1,0-.33c.52-.6,1.06-1.18,1.62-1.81l1,1.33"/><path class="cls-1" d="M9,13.92a7.79,7.79,0,0,1-1-.84c-.22-.26-.33-.27-.54,0L5.74,15c0-.06,0-.13,0-.16l2-2.23c.44.46.85.88,1.25,1.31"/><path class="cls-1" d="M15,10.21a8.22,8.22,0,0,1,.49-.67c.49-.55,1-1.09,1.48-1.63l-.36-.44.58.33L15,10.21"/><path class="cls-1" d="M16.52,3.56l-.18.2Z"/><path class="cls-1" d="M14.7,10.35l.18-.07-.18.07"/><polygon class="cls-1" points="8.47 18.15 8.45 18.19 8.41 18.22 8.47 18.15"/><path class="cls-1" d="M12.64,5.15,11,7a.27.27,0,0,1-.29,0c-.5-.35-1-.71-1.48-1.08C9,5.75,9,5.6,9.19,5.42,9.6,5,10,4.53,10.41,4.11a.5.5,0,0,1,.46-.06c.58.34,1.14.71,1.77,1.1"/><path class="cls-1" d="M13.79,11.35l-1.36,1.49c-.33.36-.67.72-1,1.09s-.36.23-.57,0c-.54-.59-1.09-1.17-1.64-1.75s-.47-.53-.05-1,1-1,1.43-1.58c.24-.29.43-.42.79-.11.75.63,1.55,1.2,2.38,1.84"/><path class="cls-1" d="M20.08,4.44c-.69.76-1.3,1.44-1.93,2.09a.52.52,0,0,1-.47,0c-.75-.46-1.47-1-2.21-1.41-.43-.27-.45-.33-.12-.7A8.27,8.27,0,0,0,16,3.66a.84.84,0,0,1,1.19-.34c.9.4,1.83.72,2.85,1.12"/><path class="cls-1" d="M22.17,20.44a.35.35,0,0,0,0,.08l-.11,0,.06,0"/><path class="cls-1" d="M27.07,19.61l.1.09.27.2.1.09,0,.42a1.23,1.23,0,0,0-.28-.23,2.83,2.83,0,0,0-.44-.11l-.28-.27-.1-.1-.18-.1-.1-.09-.29-.62.47.06.38.29.29.27.09.1"/><path class="cls-1" d="M39.19,14.58a1.7,1.7,0,0,1-.19.19l-.47.57-.2.27a4.15,4.15,0,0,0-.58.43c-.58.6-1.16,1.21-1.72,1.83a2.34,2.34,0,0,0-.25.5l-1.32,1.52-.47.38,0,0,0,0a6.33,6.33,0,0,0-.49.56,2.86,2.86,0,0,0-.22.54h1.44c.05-.25.09-.48.14-.7.31-.31.62-.63,1-.92a1,1,0,0,1,.58-.29c1.18,0,2.36,0,3.54,0,.1,0,.22.19.29.31s0,.19,0,.28c0,4.53,0,9.06,0,13.59,0,.49-.15.59-.61.59q-14.28,0-28.54,0c-.47,0-.62-.1-.61-.59,0-4.47,0-8.93,0-13.4,0-.25,0-.5,0-.77l.44,0h6.53c.13,0,.28,0,.37,0a.51.51,0,0,1,.13.31c-.51.34,0,1-.47,1.37,0,0,0,.14.09.18a.82.82,0,0,0,1.06-.21c.18-.41.3-.86.47-1.28a2.43,2.43,0,0,1,.29-.46c0-.31.08-.58.13-.87.36.06.43.18.33.47s-.2.81-.3,1.23h0l-.27.1-.29,1a.9.9,0,0,0,.31.13c.78,0,1.57,0,2.35,0,.31,0,.33-.18.09-.38-.05,0-.1-.17-.07-.22A.3.3,0,0,1,22,20.7h.56c0-.05,0-.1,0-.15l-.43-.25h0c0-.37-.27-.45-.56-.49h0c0-.24-.09-.47-.13-.71h0l.08-.09v0c.65-.07.42-.69.69-1l-.07-.1-.42.15h0l-.3-.26h0c0-.22-.07-.44-.11-.66l0,0c.48-.1.65-.49.8-.89h0c.38,0,.63-.16.53-.6h0l.07-.09v0c.4.19.4.39.08.7a5.7,5.7,0,0,0-.59.78c-.11.13-.35.34-.33.37a2.35,2.35,0,0,0,.54.55s.24-.16.36-.25l.29-.28a3.06,3.06,0,0,1,.39-.34.77.77,0,0,1,.28-.06,1.83,1.83,0,0,1,0,.33,3.7,3.7,0,0,1-.13.4h0l-.31-.08V18h0l-.18.2h0l-.19.21h0l-.26.3h0l-.13.15h0c-.4-.12-.39.24-.48.44s.18.2.27.31h0l.24.21v0l.17.13a.46.46,0,0,0,.07.07l.51.47h0l.16.13h0l.11.09h0c0,.44.22.66.77.67,1.08,0,2.17,0,3.25,0a1.77,1.77,0,0,0,.48-.15V21.1l-.47-.24h0c.07-.07.14-.19.23-.21a2.1,2.1,0,0,1,.5,0l0,0c-.12.49,0,.69.47.7a13.26,13.26,0,0,0,1.41,0c.17,0,.33-.19.49-.29h0l.18-.2v0a2.54,2.54,0,0,0,.56.34,1.69,1.69,0,0,0,.88.11c.18-.05.3-.36.45-.55h0l.09-.1,0,0,0,0,.09-.1,0,0,0,0,.09-.1h0l.08-.09v0l.13-.15h0c.24-.15.64-.15.54-.6h0l.07-.09v0l.14-.15h0l.1-.11h0l.32-.34h0l.22-.24v0l.15-.17,0,0c.42.07.35-.33.49-.52l0,0,0,0,.08-.1h0l.14-.16h0l.1-.11h0l.1-.11h0c.52.13.53-.19.5-.55h0a1.85,1.85,0,0,0,.14-.14h0c.42-.06.55-.39.66-.74h0l.13-.16h0l.19-.2h0c.37-.24.77-.45.85-1h0l.1-.11h0l.1-.1h0l.19-.2h0l.23-.27.07-.08L39,13.9h0a.94.94,0,0,0,.1-.1h0c.36,0,.38-.23.33-.52,0-.08.06-.18.09-.28s.25.05.31.12c.19.24.33.5,0,.74-.07.05-.09.16-.13.24-.35,0-.36.28-.47.48M25.65,32.87a3,3,0,0,0,.09-.49q0-4.59,0-9.16a2.08,2.08,0,0,0-.11-.48l-.71,0,0,0h0a1.26,1.26,0,0,0,0,.27v9.48a2,2,0,0,0,.11.38h.74m7-6.47a.92.92,0,0,0,.9-.91.91.91,0,1,0-1.82,0,.9.9,0,0,0,.92.87m-9.31-2.11v-.21a.32.32,0,0,0-.32-.31H12.81a.31.31,0,0,0-.31.31v.21a.31.31,0,0,0,.31.31H23a.32.32,0,0,0,.32-.31m0,2.33v-.2A.32.32,0,0,0,23,26.1H12.81a.31.31,0,0,0-.31.32v.2a.31.31,0,0,0,.31.32H23a.32.32,0,0,0,.32-.32"/><polygon class="cls-2" points="0.15 13.66 12.64 0.15 21.87 3.67 4.47 23.24 0.15 13.66"/></g></g></svg>