<svg xmlns="http://www.w3.org/2000/svg" viewBox="0 0 46.4 40"><defs><style>.cls-1{fill:none;stroke:#5bab46;stroke-miterlimit:10;}.cls-2{fill:#e6e7e8;}.cls-3,.cls-4{font-size:3.36px;font-family:MyriadPro-Regular, Myriad Pro;}.cls-3,.cls-5{fill:#231f20;}.cls-4{fill:#fff;}.cls-6{fill:#5bab46;}</style></defs><g id="Layer_2" data-name="Layer 2"><g id="Layer_1-2" data-name="Layer 1"><path class="cls-1" d="M39.05,9.35V28.68a2.51,2.51,0,0,1-2.51,2.51H36v-.33a1,1,0,0,0-1-1H12.24a1,1,0,0,0-1,1v.33h-.59a2.51,2.51,0,0,1-2.51-2.51V9.35a2.51,2.51,0,0,1,2.51-2.51H36.54A2.51,2.51,0,0,1,39.05,9.35Z"/><rect class="cls-2" x="13.07" y="11.08" width="2.61" height="5.55"/><rect class="cls-2" x="16.77" y="11.08" width="2.61" height="5.55"/><rect class="cls-2" x="20.48" y="11.08" width="2.61" height="5.55"/><rect class="cls-2" x="24.19" y="11.08" width="2.61" height="5.55"/><rect class="cls-2" x="27.78" y="11.08" width="2.61" height="5.55"/><text class="cls-3" transform="translate(13.52 15.31) scale(1 1.26)">0</text><text class="cls-3" transform="translate(17.23 15.34) scale(1 1.26)">0</text><text class="cls-3" transform="translate(20.94 15.24) scale(1 1.26)">0</text><text class="cls-3" transform="translate(24.66 15.24) scale(1 1.26)">0</text><text class="cls-3" transform="translate(28.24 15.24) scale(1 1.26)">0</text><text class="cls-4" transform="translate(32.01 15.24) scale(1 1.26)">0</text><path class="cls-5" d="M24.33,22.3c-.13.11-2.19,3.51-2.15,3.51h1.13l-.46,2.81,2.2-3.48H23.83Z"/><polyline class="cls-1" points="43.53 38.2 43.53 20.54 36.67 20.54 10.63 20.54 3.5 20.54 3.5 3.23"/><polygon class="cls-6" points="46.41 35.02 43.53 40 40.65 35.02 46.41 35.02"/><polygon class="cls-6" points="0 3.5 7.01 3.5 3.5 0 0 3.5"/><path class="cls-6" d="M36.16,30.67v4.71c0,1.35-.62,2.44-1.38,2.44h-22c-.76,0-1.38-1.09-1.38-2.44V30.67c0-.37.17-.67.37-.67h24c.21,0,.38.3.38.67"/></g></g></svg>