<svg xmlns="http://www.w3.org/2000/svg" viewBox="0 0 52.71 35.6"><defs><style>.cls-1{fill:#5bab46;}</style></defs><g id="Layer_2" data-name="Layer 2"><g id="Layer_1-2" data-name="Layer 1"><path class="cls-1" d="M9.26,32.69a8.62,8.62,0,0,0-2.42-3.61,7.1,7.1,0,0,0-3.92-1.66A6.82,6.82,0,0,0,0,27.85a6.31,6.31,0,0,1,2.35-2,4.51,4.51,0,0,1,4.36,0c2.22,1.35,2.43,4.41,2.44,4.61a8.84,8.84,0,0,1,1.59-5A6.65,6.65,0,0,1,16,22.66c3.5,0,5.5,3.11,5.7,3.44a10.36,10.36,0,0,0-3.35-.51,9.07,9.07,0,0,0-6.88,2.81,10.2,10.2,0,0,0-2.22,4.29"/><path class="cls-1" d="M9.25,4.13a5.08,5.08,0,0,0-1,1.73,3.66,3.66,0,0,0-.22,1.85,1.65,1.65,0,0,0,.46,1A1,1,0,0,0,9.19,9a1.06,1.06,0,0,0,.71-.3,1.69,1.69,0,0,0,.46-1.08,3.87,3.87,0,0,0-.39-2,9.3,9.3,0,0,0-.72-1.5"/><path class="cls-1" d="M5.44,8.41a4.05,4.05,0,0,0,.81,2.74,3,3,0,0,0,2.6,1.1,4,4,0,0,0-.7-2.69A2.93,2.93,0,0,0,5.44,8.41"/><path class="cls-1" d="M4.16,11.63a5.54,5.54,0,0,0,1.11,3.76,4.11,4.11,0,0,0,3.57,1.52,5.5,5.5,0,0,0-1-3.7,4,4,0,0,0-3.73-1.58"/><path class="cls-1" d="M3.08,16a6.82,6.82,0,0,0,1.37,4.62,5,5,0,0,0,4.39,1.86A6.74,6.74,0,0,0,7.66,18,5,5,0,0,0,3.08,16"/><path class="cls-1" d="M12.86,8.41A4.08,4.08,0,0,1,12,11.15a3,3,0,0,1-2.6,1.1,4,4,0,0,1,.7-2.69,3,3,0,0,1,2.72-1.15"/><path class="cls-1" d="M14.14,11.63A5.57,5.57,0,0,1,13,15.39a4.11,4.11,0,0,1-3.57,1.52,5.47,5.47,0,0,1,1-3.7,4,4,0,0,1,3.73-1.58"/><path class="cls-1" d="M15.21,16a6.82,6.82,0,0,1-1.37,4.62,5,5,0,0,1-4.38,1.86A6.71,6.71,0,0,1,10.63,18,5,5,0,0,1,15.21,16"/><polygon class="cls-1" points="8.84 22.51 9.46 22.51 9.26 30.3 9.04 30.3 8.84 22.51"/><path class="cls-1" d="M40.25,34.11a8.48,8.48,0,0,0-2.41-3.61,7.1,7.1,0,0,0-3.92-1.66,6.61,6.61,0,0,0-2.92.43,6.22,6.22,0,0,1,2.35-2,4.53,4.53,0,0,1,4.36,0c2.21,1.36,2.42,4.42,2.43,4.62a9,9,0,0,1,1.59-5A6.67,6.67,0,0,1,47,24.08c3.51,0,5.51,3.11,5.71,3.44A10.41,10.41,0,0,0,49.36,27a9,9,0,0,0-6.89,2.81,10.32,10.32,0,0,0-2.22,4.29"/><path class="cls-1" d="M40.25,5.55a5.08,5.08,0,0,0-1,1.73,3.55,3.55,0,0,0-.22,1.85,1.65,1.65,0,0,0,.46,1,1,1,0,0,0,.67.28,1.1,1.1,0,0,0,.72-.3A1.69,1.69,0,0,0,41.36,9a3.87,3.87,0,0,0-.39-2,10.24,10.24,0,0,0-.72-1.5"/><path class="cls-1" d="M36.43,9.83a4.08,4.08,0,0,0,.82,2.74,3,3,0,0,0,2.6,1.1,4,4,0,0,0-.7-2.69,3,3,0,0,0-2.72-1.15"/><path class="cls-1" d="M35.15,13.05a5.62,5.62,0,0,0,1.12,3.76,4.11,4.11,0,0,0,3.57,1.52,5.47,5.47,0,0,0-1-3.7,4,4,0,0,0-3.73-1.58"/><path class="cls-1" d="M34.08,17.45a6.83,6.83,0,0,0,1.37,4.62,5,5,0,0,0,4.38,1.86,6.71,6.71,0,0,0-1.17-4.54,5,5,0,0,0-4.58-1.94"/><path class="cls-1" d="M43.85,9.83A4.05,4.05,0,0,1,43,12.57a3,3,0,0,1-2.6,1.1,4,4,0,0,1,.7-2.69,2.94,2.94,0,0,1,2.71-1.15"/><path class="cls-1" d="M45.13,13.05A5.54,5.54,0,0,1,44,16.81a4.11,4.11,0,0,1-3.57,1.52,5.47,5.47,0,0,1,1-3.7,4,4,0,0,1,3.72-1.58"/><path class="cls-1" d="M46.21,17.45a6.83,6.83,0,0,1-1.37,4.62,5,5,0,0,1-4.38,1.86,6.71,6.71,0,0,1,1.17-4.54,5,5,0,0,1,4.58-1.94"/><polygon class="cls-1" points="39.83 23.93 40.45 23.93 40.25 31.72 40.04 31.72 39.83 23.93"/><path class="cls-1" d="M22.84,35.6a10.52,10.52,0,0,0-3-4.5A8.73,8.73,0,0,0,14.94,29a8.33,8.33,0,0,0-3.63.53A7.71,7.71,0,0,1,14.24,27a5.6,5.6,0,0,1,5.43,0c2.76,1.69,3,5.5,3,5.75a11,11,0,0,1,2-6.19,8.29,8.29,0,0,1,6.57-3.47c4.36,0,6.86,3.88,7.11,4.28a13.16,13.16,0,0,0-4.18-.62,11.22,11.22,0,0,0-8.58,3.5,12.61,12.61,0,0,0-2.77,5.34"/><path class="cls-1" d="M22.84,0a6.36,6.36,0,0,0-1.22,2.16,4.45,4.45,0,0,0-.28,2.31,2.19,2.19,0,0,0,.57,1.25,1.33,1.33,0,0,0,.85.34,1.27,1.27,0,0,0,.89-.37,2.18,2.18,0,0,0,.57-1.35,4.86,4.86,0,0,0-.49-2.46A11.56,11.56,0,0,0,22.84,0"/><path class="cls-1" d="M18.08,5.33a5.08,5.08,0,0,0,1,3.42,3.67,3.67,0,0,0,3.24,1.37,5,5,0,0,0-.87-3.35,3.7,3.7,0,0,0-3.39-1.44"/><path class="cls-1" d="M16.49,9.35A7,7,0,0,0,17.88,14a5.09,5.09,0,0,0,4.45,1.89,6.79,6.79,0,0,0-1.2-4.61,5,5,0,0,0-4.64-2"/><path class="cls-1" d="M15.15,14.84a8.51,8.51,0,0,0,1.71,5.76,6.24,6.24,0,0,0,5.46,2.32,8.35,8.35,0,0,0-1.46-5.66,6.18,6.18,0,0,0-5.71-2.42"/><path class="cls-1" d="M27.33,5.33a5.05,5.05,0,0,1-1,3.42,3.67,3.67,0,0,1-3.24,1.37A5,5,0,0,1,24,6.77a3.69,3.69,0,0,1,3.38-1.44"/><path class="cls-1" d="M28.93,9.35A7,7,0,0,1,27.54,14a5.09,5.09,0,0,1-4.45,1.89,6.82,6.82,0,0,1,1.19-4.61,5.06,5.06,0,0,1,4.65-2"/><path class="cls-1" d="M30.27,14.84a8.57,8.57,0,0,1-1.71,5.76,6.26,6.26,0,0,1-5.47,2.32,8.44,8.44,0,0,1,1.47-5.66,6.18,6.18,0,0,1,5.71-2.42"/><polygon class="cls-1" points="22.32 22.92 23.09 22.92 22.84 32.62 22.57 32.62 22.32 22.92"/></g></g></svg>