<svg xmlns="http://www.w3.org/2000/svg" viewBox="0 0 41.67 40"><defs><style>.cls-1{fill:#5bab46;}</style></defs><g id="Layer_2" data-name="Layer 2"><g id="Layer_1-2" data-name="Layer 1"><path class="cls-1" d="M20.83,40H1c-.84,0-1.12-.43-.93-1.38q1.5-7.68,3-15.37l1.32-6.69c.17-.88.37-1,1.15-1H35.9c1.14,0,1.16,0,1.42,1.34q2.16,10.89,4.3,21.79c.18.92-.11,1.36-.9,1.36H20.83m-6.61-1.83H27.46c-.27-2.22-.52-4.39-.78-6.57H15c-.26,2.19-.51,4.36-.77,6.57m14-6.57L29,38.17H40c-.44-2.22-.86-4.39-1.29-6.57Zm-14.79,0h-1c-3,0-6,0-8.94,0-.4,0-.55.13-.61.59-.1.7-.27,1.38-.41,2.07-.25,1.3-.51,2.61-.77,3.94H12.65c.26-2.18.52-4.35.79-6.59m13-1.84c-.24-2-.47-3.93-.7-5.88H15.91c-.23,2-.46,3.91-.7,5.88ZM14.35,23.85l-.23,0H4.89c-.28,0-.38.13-.44.43-.27,1.48-.57,3-.85,4.42-.07.35-.14.7-.21,1.11h9.82c.24,0,.45.05.5-.38.19-1.83.42-3.66.64-5.54m13,0c.22,1.85.46,3.62.64,5.4.05.47.18.56.55.56h9.28l.49,0c0-.18,0-.31-.06-.43-.33-1.65-.67-3.3-1-5-.08-.46-.24-.55-.6-.55-2.66,0-5.33,0-8,0ZM15.12,17.35H5.82c-.3,1.52-.6,3-.89,4.54.08,0,.11.07.14.07,3.07,0,6.15,0,9.23,0,.11,0,.3-.2.32-.34.18-1.4.34-2.8.5-4.26m11.42,0c.17,1.38.34,2.71.47,4,0,.45.18.58.56.58,2.93,0,5.87,0,8.8,0a3.07,3.07,0,0,0,.38,0l-.91-4.57Zm-1.55,0H16.68c-.18,1.53-.36,3-.54,4.56h9.39c-.18-1.55-.36-3-.54-4.56"/><path class="cls-1" d="M28.88,13.16c-.05.6-.25.93-.66,1s-.85-.19-.94-.75a13.33,13.33,0,0,0-.45-2.28A6.35,6.35,0,0,0,20,7a6.47,6.47,0,0,0-5.54,5.46c0,.28,0,.57-.07.86q-.09.93-.84.87c-.47,0-.74-.38-.71-1A8,8,0,0,1,28.44,11a19,19,0,0,1,.44,2.15"/><path class="cls-1" d="M21.6,2.14c0,.44,0,.87,0,1.3a.76.76,0,1,1-1.51,0c0-.9,0-1.79,0-2.69a.76.76,0,0,1,1.51,0c0,.47,0,.93,0,1.39Z"/><path class="cls-1" d="M28.9,8.54a2.75,2.75,0,0,1-.61-.62.61.61,0,0,1,.24-.84c.85-.48,1.72-.94,2.6-1.37A.65.65,0,0,1,32,6a.66.66,0,0,1-.13,1c-.86.51-1.77,1-2.67,1.43a.36.36,0,0,1-.18,0l-.1.1"/><path class="cls-1" d="M10.22,5.59c.28.11.45.16.6.24l2.1,1.1A.8.8,0,0,1,13.36,8a.78.78,0,0,1-1.15.27c-.74-.38-1.49-.77-2.22-1.17a.68.68,0,0,1-.36-.93c.11-.25.4-.42.59-.61"/></g></g></svg>